<?xml version="1.0" standalone="no"?><!DOCTYPE svg PUBLIC "-//W3C//DTD SVG 1.1//EN" "http://www.w3.org/Graphics/SVG/1.1/DTD/svg11.dtd"><svg t="1686040329556" class="icon" viewBox="0 0 1024 1024" version="1.1" xmlns="http://www.w3.org/2000/svg" p-id="1302" xmlns:xlink="http://www.w3.org/1999/xlink" width="200" height="200"><path d="M871.936 942.08h-232.96c-38.912 0-70.144-31.744-70.144-70.144v-232.96c0-38.912 31.744-70.144 70.144-70.144h232.96c38.912 0 70.144 31.744 70.144 70.144v232.96c0 38.4-31.744 70.144-70.144 70.144z" fill="#FFE200" p-id="1303"></path><path d="M416.256 112.64c5.12 0 8.704 4.096 8.704 8.704v294.4c0 5.12-4.096 8.704-8.704 8.704H121.344c-5.12 0-8.704-4.096-8.704-8.704V121.344c0-5.12 4.096-8.704 8.704-8.704h294.912m0-61.44H121.344C82.944 51.2 51.2 82.944 51.2 121.344v294.4C51.2 454.656 82.944 486.4 121.344 486.4h294.4C454.656 486.4 486.4 454.656 486.4 416.256V121.344C486.4 82.944 454.656 51.2 416.256 51.2zM902.656 112.64c5.12 0 8.704 4.096 8.704 8.704v294.4c0 5.12-4.096 8.704-8.704 8.704h-294.4c-5.12 0-8.704-4.096-8.704-8.704V121.344c0-5.12 4.096-8.704 8.704-8.704h294.4m0-61.44h-294.4c-38.912 0-70.144 31.744-70.144 70.144v294.4c0 38.912 31.744 70.144 70.144 70.144h294.4c38.912 0 70.144-31.744 70.144-70.144V121.344c0-38.4-31.744-70.144-70.144-70.144zM416.256 599.04c5.12 0 8.704 4.096 8.704 8.704v294.4c0 5.12-4.096 8.704-8.704 8.704H121.344c-5.12 0-8.704-4.096-8.704-8.704v-294.4c0-5.12 4.096-8.704 8.704-8.704h294.912m0-61.44H121.344c-38.912 0-70.144 31.744-70.144 70.144v294.4c0 38.912 31.744 70.144 70.144 70.144h294.4c38.912 0 70.144-31.744 70.144-70.144v-294.4c0.512-38.4-31.232-70.144-69.632-70.144zM871.936 972.8h-232.96c-55.808 0-100.864-45.568-100.864-100.864v-232.96c0-55.808 45.568-100.864 100.864-100.864h48.128c16.896 0 30.72 13.824 30.72 30.72s-13.824 30.72-30.72 30.72h-48.128c-22.016 0-39.424 17.92-39.424 39.424v232.96c0 22.016 17.92 39.424 39.424 39.424h232.96c22.016 0 39.424-17.92 39.424-39.424v-156.672c0-16.896 13.824-30.72 30.72-30.72s30.72 13.824 30.72 30.72v156.672c0 55.296-45.568 100.864-100.864 100.864zM942.08 669.184c-16.896 0-30.72-13.824-30.72-30.72 0-22.016-17.92-39.424-39.424-39.424-16.896 0-30.72-13.824-30.72-30.72s13.824-30.72 30.72-30.72c55.808 0 100.864 45.568 100.864 100.864 0 16.896-13.824 30.72-30.72 30.72z" fill="#405FD3" p-id="1304"></path><path d="M786.944 599.04h-20.992c-16.896 0-30.72-13.824-30.72-30.72s13.824-30.72 30.72-30.72h20.992c16.896 0 30.72 13.824 30.72 30.72s-13.824 30.72-30.72 30.72z" fill="#405FD3" p-id="1305"></path><path d="M343.552 212.48H248.32c-16.896 0-30.72-13.824-30.72-30.72s13.824-30.72 30.72-30.72h95.232c16.896 0 30.72 13.824 30.72 30.72s-13.312 30.72-30.72 30.72z" fill="#FFE200" p-id="1306"></path></svg>