<?xml version="1.0" standalone="no"?><!DOCTYPE svg PUBLIC "-//W3C//DTD SVG 1.1//EN" "http://www.w3.org/Graphics/SVG/1.1/DTD/svg11.dtd"><svg t="1686041057250" class="icon" viewBox="0 0 1024 1024" version="1.1" xmlns="http://www.w3.org/2000/svg" p-id="28108" xmlns:xlink="http://www.w3.org/1999/xlink" width="200" height="200"><path d="M921.6 89.6a76.8 76.8 0 0 1 76.8 76.8v691.2a76.8 76.8 0 0 1-76.8 76.8H102.4a76.8 76.8 0 0 1-76.8-76.8V166.4a76.8 76.8 0 0 1 76.8-76.8h819.2zM666.624 328.896a38.4 38.4 0 0 0-6.4256 52.1728l1.4976 1.92L769.2288 512l-107.52 129.024a38.4 38.4 0 0 0 3.0976 52.4672l1.8176 1.6128a38.4 38.4 0 0 0 52.4672-3.0976l1.6128-1.8176 128-153.6a38.4 38.4 0 0 0 1.536-47.1936l-1.536-1.984-128-153.6a38.4 38.4 0 0 0-54.08-4.9152z m-309.248 0a38.4 38.4 0 0 0-52.4672 3.0976l-1.6128 1.8176-128 153.6-1.536 1.984a38.4 38.4 0 0 0-0.0768 45.1072l1.6128 2.0864 128 153.6 1.6128 1.8176a38.4 38.4 0 0 0 50.56 4.5952l1.92-1.4976 1.8176-1.6128a38.4 38.4 0 0 0 4.5952-50.56l-1.4976-1.92L254.7712 512l107.52-129.024 1.5104-1.9072a38.4 38.4 0 0 0-6.4128-52.1728z" fill="#4f74cf" p-id="28109" data-spm-anchor-id="a313x.7781069.0.i23" class="selected"></path><path d="M513.152 349.0816a38.4 38.4 0 0 1 74.9824 16.4224l-0.4864 2.2144-76.8 307.2a38.4 38.4 0 0 1-74.9824-16.4224l0.4864-2.2144 76.8-307.2z" fill="#FFBA00" p-id="28110"></path></svg>