<?xml version="1.0" standalone="no"?><!DOCTYPE svg PUBLIC "-//W3C//DTD SVG 1.1//EN" "http://www.w3.org/Graphics/SVG/1.1/DTD/svg11.dtd"><svg t="1686041560474" class="icon" viewBox="0 0 1024 1024" version="1.1" xmlns="http://www.w3.org/2000/svg" p-id="44063" xmlns:xlink="http://www.w3.org/1999/xlink" width="200" height="200"><path d="M928.6 529.1c0.1-0.2 0.1-0.5 0.2-0.7 2-5.1 3.2-10.6 3.2-16.4 0-5.8-1.2-11.3-3.2-16.4-0.1-0.2-0.1-0.4-0.2-0.7-2.3-5.6-5.6-10.6-9.8-14.7L770.3 331.7c-8.8-8.8-20.3-13.2-31.8-13.2s-23 4.4-31.8 13.2c-17.6 17.6-17.6 46.1 0 63.6l71.7 71.7H557c-24.9 0-45 20.1-45 45s20.1 45 45 45h221.4l-71.7 71.7c-17.6 17.6-17.6 46.1 0 63.6 8.8 8.8 20.3 13.2 31.8 13.2s23-4.4 31.8-13.2l148.5-148.5c4.2-4.1 7.5-9.2 9.8-14.7z" fill="#4C4F54" p-id="44064"></path><path d="M782 947H242c-91 0-165-74-165-165V242c0-91 74-165 165-165h540c91 0 165 74 165 165v90c0 24.8-20.2 45-45 45s-45-20.2-45-45v-90c0-41.4-33.6-75-75-75H242c-41.4 0-75 33.6-75 75v540c0 41.4 33.6 75 75 75h540c41.4 0 75-33.6 75-75v-60c0-24.8 20.2-45 45-45s45 20.2 45 45v60c0 91-74 165-165 165z" fill="#2081F6" p-id="44065"></path></svg>