<?xml version="1.0" standalone="no"?><!DOCTYPE svg PUBLIC "-//W3C//DTD SVG 1.1//EN" "http://www.w3.org/Graphics/SVG/1.1/DTD/svg11.dtd"><svg t="1686041696083" class="icon" viewBox="0 0 1024 1024" version="1.1" xmlns="http://www.w3.org/2000/svg" p-id="50046" data-spm-anchor-id="a313x.7781069.0.i41" xmlns:xlink="http://www.w3.org/1999/xlink" width="200" height="200"><path d="M168.533333 529.066667m-93.866666 0a93.866667 93.866667 0 1 0 187.733333 0 93.866667 93.866667 0 1 0-187.733333 0Z" fill="#4f74cf" p-id="50047" data-spm-anchor-id="a313x.7781069.0.i39" class="selected"></path><path d="M582.4 251.733333m-74.666667 0a74.666667 74.666667 0 1 0 149.333334 0 74.666667 74.666667 0 1 0-149.333334 0Z" fill="#4f74cf" p-id="50048" data-spm-anchor-id="a313x.7781069.0.i38" class="selected"></path><path d="M215.466667 642.133333c-91.733333 0-166.4-74.666667-166.4-166.4s74.666667-166.4 166.4-166.4 166.4 74.666667 166.4 166.4-74.666667 166.4-166.4 166.4z m0-290.133333c-68.266667 0-123.733333 55.466667-123.733334 123.733333s55.466667 123.733333 123.733334 123.733334 123.733333-55.466667 123.733333-123.733334-55.466667-123.733333-123.733333-123.733333zM622.933333 352c-74.666667 0-136.533333-61.866667-136.533333-136.533333s61.866667-136.533333 136.533333-136.533334c74.666667 0 136.533333 61.866667 136.533334 136.533334s-59.733333 136.533333-136.533334 136.533333z m0-230.4c-51.2 0-93.866667 42.666667-93.866666 93.866667 0 51.2 42.666667 93.866667 93.866666 93.866666s93.866667-42.666667 93.866667-93.866666c0-51.2-40.533333-93.866667-93.866667-93.866667z" fill="#1E1E1E" p-id="50049"></path><path d="M755.2 682.666667m-98.133333 0a98.133333 98.133333 0 1 0 196.266666 0 98.133333 98.133333 0 1 0-196.266666 0Z" fill="#4f74cf" p-id="50050" data-spm-anchor-id="a313x.7781069.0.i37" class="selected"></path><path d="M791.466667 802.133333c-96 0-174.933333-78.933333-174.933334-174.933333s78.933333-174.933333 174.933334-174.933333 174.933333 78.933333 174.933333 174.933333-78.933333 174.933333-174.933333 174.933333z m0-305.066666c-72.533333 0-132.266667 59.733333-132.266667 132.266666s59.733333 132.266667 132.266667 132.266667 132.266667-59.733333 132.266666-132.266667-59.733333-132.266667-132.266666-132.266666z" fill="#1E1E1E" p-id="50051"></path><path d="M640 629.333333h-4.266667L341.333333 556.8c-10.666667-2.133333-19.2-14.933333-14.933333-25.6 2.133333-10.666667 14.933333-19.2 25.6-14.933333l294.4 72.533333c10.666667 2.133333 19.2 14.933333 14.933333 25.6-2.133333 8.533333-10.666667 14.933333-21.333333 14.933333zM334.933333 413.866667c-6.4 0-12.8-2.133333-17.066666-8.533334-6.4-8.533333-4.266667-23.466667 4.266666-29.866666l183.466667-132.266667c8.533333-6.4 23.466667-4.266667 29.866667 4.266667 6.4 8.533333 4.266667 23.466667-4.266667 29.866666l-183.466667 132.266667c-4.266667 4.266667-8.533333 4.266667-12.8 4.266667z" fill="#1E1E1E" p-id="50052"></path></svg>