<?xml version="1.0" standalone="no"?><!DOCTYPE svg PUBLIC "-//W3C//DTD SVG 1.1//EN" "http://www.w3.org/Graphics/SVG/1.1/DTD/svg11.dtd"><svg t="1686041738352" class="icon" viewBox="0 0 1024 1024" version="1.1" xmlns="http://www.w3.org/2000/svg" p-id="2780" xmlns:xlink="http://www.w3.org/1999/xlink" width="200" height="200"><path d="M79.36 754.688a432.64 185.344 0 1 0 865.28 0 432.64 185.344 0 1 0-865.28 0Z" fill="#FFE200" p-id="2781"></path><path d="M510.976 485.376c-118.784 0-215.552-96.768-215.552-215.552 0-118.784 96.768-215.552 215.552-215.552s215.552 96.768 215.552 215.552c-0.512 118.784-96.768 215.552-215.552 215.552z m0-369.664c-84.992 0-154.112 69.12-154.112 154.112s69.12 154.112 154.112 154.112 154.112-69.12 154.112-154.112c-0.512-84.992-69.632-154.112-154.112-154.112zM82.944 785.408c-16.896 0-30.72-13.824-30.72-30.72 0-62.464 51.712-119.296 145.408-159.232 85.504-36.352 198.656-56.832 317.952-56.832 28.16 0 56.32 1.024 83.968 3.584 16.896 1.536 29.696 16.384 28.16 33.28-1.536 16.896-16.384 29.696-33.28 28.16-25.6-2.048-52.224-3.072-78.848-3.072-237.056 0-401.92 81.408-401.92 154.624 0 16.384-13.824 30.208-30.72 30.208zM948.224 785.408c-16.896 0-30.72-13.824-30.72-30.72 0-8.704-2.048-16.896-6.656-25.6-7.68-15.36-1.536-33.792 13.312-41.472 15.36-7.68 33.792-1.536 41.472 13.312 8.704 17.408 13.312 35.328 13.312 53.248 0 17.408-13.824 31.232-30.72 31.232zM888.32 691.2c-6.144 0-12.8-2.048-17.92-5.632-8.704-6.656-18.944-12.8-30.208-18.944-14.848-8.192-20.48-26.624-12.288-41.472 8.192-14.848 26.624-20.48 41.472-12.288 13.312 7.168 26.112 14.848 36.864 23.04 13.824 9.728 16.896 29.184 6.656 43.008-5.632 7.68-15.36 12.288-24.576 12.288zM774.144 636.928c-3.072 0-6.144-0.512-9.216-1.536-26.624-8.704-55.808-15.872-86.528-21.504-16.896-3.072-27.648-18.944-24.576-35.84 3.072-16.896 18.944-27.648 35.84-24.576 33.28 6.144 65.024 13.824 94.72 23.04 16.384 5.12 25.088 22.528 19.968 38.4-5.12 13.824-17.408 22.016-30.208 22.016z" fill="#405FD3" p-id="2782"></path><path d="M569.344 367.104H462.336c-16.896 0-30.72-13.824-30.72-30.72s13.824-30.72 30.72-30.72h107.008c16.896 0 30.72 13.824 30.72 30.72s-13.312 30.72-30.72 30.72z" fill="#FFE200" p-id="2783"></path></svg>